<svg width="129" height="42" viewBox="0 0 129 42" fill="none" xmlns="http://www.w3.org/2000/svg">
<path d="M0 0.999634V37.5339H36.5343V0.999634H0ZM31.895 32.9913H4.54263V5.54226H31.895V32.9913ZM22.7131 31.3482L10.535 19.2668L22.7131 7.08868V13.5643L17.0107 19.2668L22.7131 24.9692V31.3482Z" fill="#ED1C24"/>
<path d="M58.904 23.4436H63.748V15.7996H62.068V1.32363H57.252V15.7996H49.496V1.32363H44.68V19.9996H58.904V23.4436ZM87.0127 19.9996V1.32363H80.3207L76.4007 11.4596L72.5087 1.32363H65.8167V19.9996H70.6327V7.84763L75.3367 19.9996H77.4647L82.1967 7.84763V19.9996H87.0127ZM95.0194 19.9996L102.887 8.46363V19.9996H107.731V1.32363H102.747L95.1874 12.3276V1.32363H90.3714V19.9996H95.0194ZM120.086 19.9996V5.52363H125.294V1.32363H110.034V5.52363H115.27V19.9996H120.086ZM53.896 37.9996V27.3276H51.144V31.3116H46.712V27.3276H43.96V37.9996H46.712V33.7116H51.144V37.9996H53.896ZM63.6434 37.9996V35.5996H58.5714V33.7916H63.5314V31.3916H58.5714V29.7276H63.6434V27.3276H55.8194V37.9996H63.6434ZM67.8973 37.9996L72.3933 31.4076V37.9996H75.1613V27.3276H72.3133L67.9933 33.6156V27.3276H65.2413V37.9996H67.8973ZM73.0013 25.4716L71.9453 24.6076C71.5453 25.1996 70.9373 25.5356 70.2013 25.5356C69.4333 25.5356 68.8413 25.1516 68.4413 24.6076L67.3853 25.4716C68.0413 26.3356 69.0653 26.8796 70.2013 26.8796C71.3533 26.8796 72.3612 26.3356 73.0013 25.4716ZM79.837 37.9996V34.4156H82.429C84.829 34.4156 86.141 32.7996 86.141 30.8796C86.141 28.9436 84.829 27.3276 82.429 27.3276H77.085V37.9996H79.837ZM82.061 32.0156H79.837V29.7276H82.061C82.797 29.7276 83.341 30.1436 83.341 30.8796C83.341 31.5996 82.797 32.0156 82.061 32.0156ZM92.5343 38.1916C95.7983 38.1916 98.2303 35.9196 98.2303 32.6716C98.2303 29.4236 95.7983 27.1516 92.5343 27.1516C89.2703 27.1516 86.8223 29.4236 86.8223 32.6716C86.8223 35.9196 89.2703 38.1916 92.5343 38.1916ZM92.5343 35.7596C90.7583 35.7596 89.6223 34.3996 89.6223 32.6716C89.6223 30.9276 90.7583 29.5836 92.5343 29.5836C94.2943 29.5836 95.4303 30.9276 95.4303 32.6716C95.4303 34.3996 94.2943 35.7596 92.5343 35.7596ZM104.393 37.9996V29.7276H107.369V27.3276H98.6489V29.7276H101.641V37.9996H104.393ZM116.503 37.9996V35.5996H111.431V33.7916H116.391V31.3916H111.431V29.7276H116.503V27.3276H108.679V37.9996H116.503ZM128.117 37.9996L124.405 32.5116L127.877 27.3276H124.613L122.549 30.6716L120.453 27.3276H117.205L120.693 32.5276L116.965 37.9996H120.229L122.549 34.4156L124.869 37.9996H128.117Z" fill="white"/>
</svg>
