<svg width="45" height="45" viewBox="0 0 45 45" fill="none" xmlns="http://www.w3.org/2000/svg">
<circle cx="22.5" cy="22.5" r="22.5" fill="white"/>
<path d="M38.4075 6.58769C29.6194 -2.19776 15.3731 -2.19565 6.58769 6.59252C-2.19776 15.3807 -2.19565 29.6269 6.59252 38.4123C15.3807 47.1978 29.6269 47.1956 38.4123 38.4075C42.6316 34.1869 45.0013 28.463 45 22.4952C44.9987 16.5283 42.6274 10.8063 38.4075 6.58769ZM34.0754 31.3422C34.0745 31.3432 34.0735 31.3442 34.0725 31.3452V31.3377L32.9324 32.4702C31.4581 33.9632 29.3108 34.5775 27.2699 34.0902C25.2137 33.5398 23.259 32.6637 21.4799 31.4952C19.8271 30.4389 18.2953 29.204 16.9125 27.8127C15.6401 26.5496 14.497 25.1627 13.4999 23.6727C12.4094 22.0694 11.5462 20.3229 10.9349 18.4827C10.2342 16.3209 10.8149 13.9489 12.435 12.3552L13.7699 11.0203C14.1411 10.6474 14.7442 10.6461 15.1169 11.0173C15.1179 11.0182 15.119 11.0192 15.1199 11.0203L19.3349 15.2352C19.7077 15.6064 19.709 16.2095 19.3379 16.5822C19.3369 16.5832 19.3359 16.5842 19.3349 16.5852L16.8599 19.0602C16.1497 19.7627 16.0604 20.8789 16.6499 21.6853C17.5451 22.9138 18.5357 24.0698 19.6124 25.1428C20.8129 26.3485 22.118 27.4452 23.5124 28.4203C24.3181 28.9823 25.4104 28.8875 26.1074 28.1953L28.4998 25.7653C28.871 25.3925 29.4741 25.3912 29.8469 25.7623C29.8478 25.7633 29.8488 25.7643 29.8498 25.7653L34.0724 29.9953C34.4453 30.3664 34.4466 30.9694 34.0754 31.3422Z" fill="#F92985"/>
</svg>
